<svg width="100%" viewBox="0 0 200 200" role="img" xmlns="http://www.w3.org/2000/svg">
  <title>Crewcast logo</title>

  <rect x="10" y="10" width="180" height="180" rx="36" fill="#faf9f5" />
  <line x1="95" y1="45" x2="95" y2="145" stroke="#30302e" stroke-width="5" stroke-linecap="round" />
  <path d="M95 45 L116 53 L95 61 Z" fill="#30302e" />
  <path d="M95 52 Q140 80 138 128 L95 128 Z" fill="#30302e" />
  <path d="M95 70 L62 108 L95 108 Z" fill="#30302e" opacity="0.75" />
  <path d="M55 145 L140 145 Q152 145 150 158 Q146 170 130 172 L75 172 Q58 170 52 158 Q48 145 55 145 Z" fill="#30302e" />
  <path d="M55 145 Q44 148 38 158 Q36 165 48 168 L52 158 Z" fill="#30302e" />
</svg>
